HIERARCHY
ROOT Hips
{
 OFFSET 0.000000 0.000000 0.000000
 CHANNELS 6 Xposition Yposition Zposition Yrotation Xrotation Zrotation
 JOINT Chest
 {
  OFFSET 0.000000 10.354800 0.006500
  CHANNELS 3 Yrotation Xrotation Zrotation
  JOINT Chest2
  {
   OFFSET 0.000000 10.435800 -0.013200
   CHANNELS 3 Yrotation Xrotation Zrotation
   JOINT Chest3
   {
    OFFSET 0.000000 10.393700 0.000000
    CHANNELS 3 Yrotation Xrotation Zrotation
    JOINT Chest4
    {
     OFFSET 0.000000 10.383100 0.000000
     CHANNELS 3 Yrotation Xrotation Zrotation
     JOINT Neck
     {
      OFFSET 0.000000 15.694000 0.000000
      CHANNELS 3 Yrotation Xrotation Zrotation
      JOINT Head
      {
       OFFSET 0.000000 9.711000 -0.028000
       CHANNELS 3 Yrotation Xrotation Zrotation
       End Site
       {
        OFFSET 0.000000 18.578700 -0.014800
       }
      }
     }
     JOINT RightCollar
     {
      OFFSET -3.157200 10.367500 0.000000
      CHANNELS 3 Yrotation Xrotation Zrotation
      JOINT RightShoulder
      {
       OFFSET -14.482500 0.000000 0.000000
       CHANNELS 3 Yrotation Xrotation Zrotation
       JOINT RightElbow
       {
        OFFSET 0.000000 -31.707800 0.000000
        CHANNELS 3 Yrotation Xrotation Zrotation
        JOINT RightWrist
        {
         OFFSET 0.000000 -25.659300 0.000000
         CHANNELS 3 Yrotation Xrotation Zrotation
         End Site
         {
          OFFSET 0.000000 -18.994300 0.000000
         }
        }
       }
      }
     }
     JOINT LeftCollar
     {
      OFFSET 3.157200 10.367500 0.000000
      CHANNELS 3 Yrotation Xrotation Zrotation
      JOINT LeftShoulder
      {
       OFFSET 14.482500 0.000000 0.000000
       CHANNELS 3 Yrotation Xrotation Zrotation
       JOINT LeftElbow
       {
        OFFSET 0.000000 -31.707800 0.000000
        CHANNELS 3 Yrotation Xrotation Zrotation
        JOINT LeftWrist
        {
         OFFSET 0.000000 -25.659300 0.000000
         CHANNELS 3 Yrotation Xrotation Zrotation
         End Site
         {
          OFFSET 0.000000 -18.994300 0.000000
         }
        }
       }
      }
     }
    }
   }
  }
 }
 JOINT RightHip
 {
  OFFSET -8.365600 -0.032100 -0.003200
  CHANNELS 3 Yrotation Xrotation Zrotation
  JOINT RightKnee
  {
   OFFSET 0.000000 -43.980000 0.003100
   CHANNELS 3 Yrotation Xrotation Zrotation
   JOINT RightAnkle
   {
    OFFSET 0.000000 -42.882800 0.005200
    CHANNELS 3 Yrotation Xrotation Zrotation
    JOINT RightToe
    {
     OFFSET 0.000000 -4.915500 10.826300
     CHANNELS 3 Yrotation Xrotation Zrotation
     End Site
     {
      OFFSET 0.000000 -1.517500 6.175900
     }
    }
   }
  }
 }
 JOINT LeftHip
 {
  OFFSET 8.365600 -0.032100 -0.003200
  CHANNELS 3 Yrotation Xrotation Zrotation
  JOINT LeftKnee
  {
   OFFSET 0.000000 -43.980000 0.003100
   CHANNELS 3 Yrotation Xrotation Zrotation
   JOINT LeftAnkle
   {
    OFFSET 0.000000 -42.882800 0.005200
    CHANNELS 3 Yrotation Xrotation Zrotation
    JOINT LeftToe
    {
     OFFSET 0.000000 -4.915500 10.826300
     CHANNELS 3 Yrotation Xrotation Zrotation
     End Site
     {
      OFFSET 0.000000 -1.517500 6.175900
     }
    }
   }
  }
 }
}
MOTION
Frames: 11
Frame Time: 0.008333
-5.333016 127.135721 14.272168 167.854686 -32.420853 -2.469778 -0.151303 14.353023 2.760970 -0.027041 1.360672 0.248943 -0.065867 2.136390 0.411680 -0.182449 12.807786 2.460913 -1.790960 20.754545 -1.806340 -1.443327 -3.683992 -1.575507 5.687691 3.267046 -4.781045 11.787089 -31.239336 -22.923842 47.619424 -72.379210 -51.594746 -15.992482 -24.726678 -26.793432 -5.917306 7.013497 -0.700499 16.848114 -31.324182 1.663885 -63.711393 -61.838633 87.575529 0.596187 -17.443499 27.549708 6.272176 -47.694379 4.461373 -146.109447 80.318554 -139.508921 1.001358 -18.256659 -0.680049 0.019176 -0.001212 0.008706 -13.503697 -43.484230 16.774176 145.313384 75.878419 140.340415 0.485542 -21.819159 -5.149863 -0.001749 0.008979 -0.000794
-5.336459 127.137234 14.300854 167.842854 -32.516510 -2.469642 -0.144335 14.401984 2.763166 -0.044608 1.262448 0.244775 -0.059450 2.212387 0.412161 -0.192760 12.850229 2.453906 -1.742609 20.771824 -1.825223 -1.409114 -3.684635 -1.584934 5.650766 3.275813 -4.783384 11.606927 -31.241071 -22.836812 45.600497 -73.048518 -49.422408 -16.006284 -24.794207 -27.297694 -5.876331 6.992219 -0.671185 16.882021 -31.354180 1.711053 -62.521490 -62.236577 86.401839 0.729319 -17.289390 27.636405 6.146924 -47.598351 4.501707 -146.225780 80.376375 -139.617389 1.040847 -18.223741 -0.777578 0.018322 0.003147 0.008319 -13.481009 -43.411607 16.764725 145.293269 75.875340 140.327147 0.483032 -21.801119 -5.135613 -0.000269 0.016074 -0.000122
-5.340935 127.144845 14.316132 167.850367 -32.666232 -2.462097 -0.154358 14.507886 2.748407 -0.052344 1.213291 0.246204 -0.071184 2.181751 0.413103 -0.186931 12.955874 2.447115 -1.704357 20.768425 -1.843460 -1.413406 -3.666786 -1.572697 5.604630 3.284267 -4.775637 11.408604 -31.217498 -22.756873 44.228882 -73.557148 -47.937500 -15.937206 -24.882845 -27.880741 -5.839740 6.968580 -0.644802 16.953468 -31.347133 1.732071 -61.554401 -62.566041 85.439803 0.868184 -17.107263 27.710242 6.018764 -47.444999 4.529385 -146.315389 80.426790 -139.706625 1.073246 -18.185641 -0.857863 0.017361 0.000096 0.007883 -13.438821 -43.289649 16.710805 145.138156 75.885662 140.187675 0.376590 -21.751800 -5.090710 -0.009756 0.012368 -0.004430
-5.345091 127.149914 14.332670 167.875529 -32.780629 -2.469968 -0.194035 14.487563 2.739197 -0.042397 1.314277 0.244595 -0.078483 2.159634 0.415850 -0.181940 13.006877 2.441780 -1.675033 20.739171 -1.856414 -1.307401 -3.727691 -1.626436 5.547465 3.288671 -4.757355 11.223452 -31.159598 -22.692566 43.486262 -73.943119 -47.139306 -15.800654 -24.969729 -28.492173 -5.822230 6.955908 -0.631534 17.043831 -31.322650 1.744226 -60.804122 -62.822684 84.706265 1.014191 -16.909889 27.768242 5.935720 -47.329472 4.541349 -146.307893 80.460800 -139.668843 1.072396 -18.153073 -0.923695 0.046700 0.001560 0.021204 -13.420246 -43.204363 16.674187 144.862855 75.914415 139.901597 0.431544 -21.656840 -5.078494 -0.024981 0.021143 -0.011346
-5.348534 127.154638 14.347199 167.888684 -32.884816 -2.474838 -0.215606 14.505175 2.737908 -0.037193 1.368066 0.241231 -0.085887 2.139540 0.419867 -0.197227 13.033723 2.436684 -1.629066 20.723115 -1.871013 -1.237639 -3.769586 -1.652801 5.506967 3.323674 -4.737639 11.063911 -31.064291 -22.645026 43.274310 -74.246775 -46.932044 -15.619556 -25.047795 -29.084288 -5.760120 6.954097 -0.601249 17.125776 -31.242822 1.715931 -60.257676 -63.020953 84.188305 1.158336 -16.717106 27.803347 5.862110 -47.225709 4.557469 -146.292319 80.494764 -139.622592 1.083602 -18.123272 -0.987099 0.060466 0.004997 0.027456 -13.393285 -43.122862 16.648325 144.768461 75.938429 139.801439 0.437003 -21.604692 -5.060001 -0.036108 0.022613 -0.016400
-5.350407 127.158511 14.361039 167.907076 -32.973738 -2.491697 -0.233696 14.532572 2.749019 -0.048879 1.311051 0.246678 -0.079207 2.210910 0.415420 -0.216049 13.051019 2.432352 -1.555699 20.658195 -1.876116 -1.212309 -3.745663 -1.663986 5.498042 3.361622 -4.731735 10.879015 -30.926645 -22.587877 43.458166 -74.512627 -47.162409 -15.418933 -25.125044 -29.609142 -5.694656 6.963495 -0.573277 17.232846 -31.138101 1.655757 -59.902215 -63.184498 83.851482 1.288211 -16.548247 27.813517 5.730482 -47.136010 4.600880 -146.342204 80.537917 -139.670654 1.112810 -18.092579 -1.051724 0.057349 0.003978 0.026040 -13.392372 -43.054723 16.682635 144.823774 75.981042 139.836014 0.405213 -21.547871 -5.030681 -0.023336 0.013202 -0.010598
-5.356640 127.162935 14.370467 167.928251 -33.065104 -2.482573 -0.257134 14.569519 2.734099 -0.050842 1.316358 0.247337 -0.082410 2.219590 0.416440 -0.249970 13.055000 2.435334 -1.501464 20.650586 -1.890237 -1.165534 -3.777346 -1.679288 5.450176 3.428791 -4.714175 10.752748 -30.778938 -22.561696 43.904449 -74.785367 -47.667977 -15.226083 -25.217923 -30.031651 -5.622241 6.988960 -0.566387 17.381139 -31.019155 1.569311 -59.730327 -63.332456 83.667296 1.398448 -16.414494 27.814158 5.639213 -47.039992 4.596336 -146.438498 80.579485 -139.773171 1.139432 -18.074809 -1.093921 0.042519 0.006474 0.019307 -13.369145 -42.976731 16.662685 144.798584 76.023023 139.781042 0.384356 -21.503519 -4.999178 -0.021638 0.015669 -0.009827
-5.366098 127.164633 14.381401 167.937692 -33.126026 -2.452527 -0.272827 14.581972 2.706492 -0.052986 1.321285 0.248154 -0.085994 2.227545 0.417728 -0.254453 13.086165 2.425603 -1.471005 20.607392 -1.880254 -1.122017 -3.815435 -1.693689 5.365931 3.472143 -4.683498 10.613998 -30.628121 -22.522876 44.475702 -75.091053 -48.282952 -15.061783 -25.344318 -30.349517 -5.571538 6.990743 -0.536927 17.563001 -30.885249 1.454422 -59.720036 -63.480420 83.610381 1.481992 -16.321972 27.836516 5.535072 -46.976625 4.586516 -146.629799 80.617426 -140.022572 1.196409 -18.059955 -1.123519 -0.001005 0.007483 -0.000456 -13.328419 -42.930103 16.625548 144.742690 76.062466 139.691393 0.348575 -21.455389 -4.969039 -0.014000 0.012261 -0.006357
-5.374092 127.166651 14.390710 167.958888 -33.185901 -2.436159 -0.294524 14.597145 2.688161 -0.055314 1.325427 0.249078 -0.089961 2.234237 0.419244 -0.276225 13.108417 2.424265 -1.438832 20.580922 -1.887013 -1.078993 -3.873907 -1.707457 5.302528 3.527238 -4.675589 10.440744 -30.476524 -22.457776 45.057955 -75.439070 -48.873178 -14.935679 -25.514194 -30.581880 -5.506725 7.007452 -0.519656 17.763875 -30.741014 1.325222 -59.824949 -63.635873 83.648078 1.534224 -16.267881 27.909780 5.525398 -46.918031 4.547834 -146.587229 80.641818 -139.944880 1.193886 -18.045666 -1.169213 0.017860 0.024642 0.008112 -13.305440 -42.881143 16.586517 144.658076 76.092315 139.573416 0.358216 -21.432711 -4.949184 -0.044275 0.033510 -0.020113
-5.376077 127.169419 14.399447 167.984236 -33.248200 -2.455046 -0.313554 14.614255 2.702302 -0.057664 1.328596 0.250078 -0.090168 2.259692 0.415143 -0.320810 13.083398 2.452008 -1.409020 20.610201 -1.931891 -1.032359 -3.964931 -1.719872 5.259174 3.617763 -4.691219 10.247013 -30.325710 -22.383084 45.601899 -75.832385 -49.384163 -14.848847 -25.714111 -30.745625 -5.436348 7.055755 -0.540739 17.967783 -30.591795 1.210839 -60.004053 -63.793430 83.752660 1.567014 -16.236719 28.045124 5.430068 -46.859808 4.569773 -146.678566 80.691979 -140.020689 1.190670 -17.997163 -1.218248 0.024333 0.021453 0.011052 -13.307509 -42.828245 16.612403 144.678981 76.132726 139.562945 0.339924 -21.393491 -4.924170 -0.044779 0.033880 -0.020342
-5.377445 127.171527 14.408602 168.014468 -33.301366 -2.481189 -0.338747 14.619311 2.720016 -0.060025 1.330812 0.251035 -0.088963 2.288700 0.411205 -0.346238 13.066645 2.462583 -1.376068 20.583975 -1.944535 -1.000983 -4.007623 -1.740138 5.203722 3.696647 -4.683565 10.036748 -30.174988 -22.303524 46.095156 -76.264862 -49.807515 -14.795899 -25.918330 -30.856693 -5.403828 7.093109 -0.558125 18.168316 -30.439471 1.130636 -60.236126 -63.942059 83.915317 1.594493 -16.216661 28.226076 5.307001 -46.807511 4.608075 -146.794355 80.724807 -140.165403 1.228193 -17.965112 -1.242465 -0.003243 0.010979 -0.001473 -13.309178 -42.789282 16.672033 144.813707 76.184606 139.668742 0.275698 -21.340047 -4.889993 -0.010602 0.012621 -0.004814
